<svg height="300px" width="300px" fill="#1A1A1A" xmlns="http://www.w3.org/2000/svg" data-name="Layer 1" viewBox="0 0 512 512" x="0px" y="0px"><title>TXT</title><g data-name="Group"><path data-name="Compound Path" d="M462.7,281H447V129.961a8.146,8.146,0,0,0-2.545-5.709L324.264,6.32A8.2,8.2,0,0,0,318.585,4H112.4C86.428,4,65,26.021,65,53.019V281H49.3c-4.418,0-8.3,3.085-8.3,7.5V423.5c0,4.418,3.88,7.5,8.3,7.5H65v27.981c0,27,21.428,49.019,47.4,49.019H399.6c25.972,0,47.4-22.021,47.4-49.019V431h15.7c4.418,0,8.3-3.085,8.3-7.5V288.5C471,284.085,467.12,281,462.7,281ZM326,30.866,419.6,122H344.4A18.633,18.633,0,0,1,326,103.115ZM81,53.019C81,34.844,95.25,20,112.4,20H310v83.115A34.648,34.648,0,0,0,344.4,138H431V281H81ZM431,458.981C431,477.156,416.75,492,399.6,492H112.4C95.25,492,81,477.156,81,458.981V431H431ZM455,415H57V297H455Z"/><path data-name="Path" d="M147.34,329H165v68.505c0,3.239,4.04,4.92,8,4.92,3.84,0,8-1.681,8-4.92V329h17.1c3.12,0,4.92-3.34,4.92-7.06,0-3.36-1.56-6.94-4.92-6.94H147.34c-3.36,0-4.92,3.58-4.92,6.94C142.42,325.78,144.22,329,147.34,329Z"/><path data-name="Path" d="M217.9,395.225c0,4.32,6,7.8,10.2,7.8a5,5,0,0,0,4.32-2.519l17.519-30.839,17.639,30.839a4.659,4.659,0,0,0,4.2,2.519c4.32,0,10.2-3.479,10.2-7.8a5.935,5.935,0,0,0-.84-2.88l-20.759-33.839,20.039-33.718a6.491,6.491,0,0,0,1.08-3.36c0-4.2-5.52-7.32-9.96-7.32-2.519,0-4.08,1.32-5.28,3.36l-16.319,29.4-16.319-29.4a5.657,5.657,0,0,0-5.16-3.36c-4.44,0-9.96,3.12-9.96,7.32a6.491,6.491,0,0,0,1.08,3.36l20.04,33.718-20.76,33.839A6.255,6.255,0,0,0,217.9,395.225Z"/><path data-name="Path" d="M302.019,329H320v68.505c0,3.239,3.54,4.92,7.5,4.92,3.84,0,7.5-1.681,7.5-4.92V329h17.777c3.119,0,4.92-3.34,4.92-7.06,0-3.36-1.56-6.94-4.92-6.94H302.019c-3.36,0-4.92,3.58-4.92,6.94C297.1,325.78,298.9,329,302.019,329Z"/></g></svg>